<svg width="19" height="19" viewBox="0 0 19 19" fill="none" xmlns="http://www.w3.org/2000/svg">
<path d="M9.08789 18.1758C14.0713 18.1758 18.1846 14.0625 18.1846 9.08789C18.1846 4.11328 14.0625 0 9.0791 0C4.10449 0 0 4.11328 0 9.08789C0 14.0625 4.11328 18.1758 9.08789 18.1758ZM9.08789 16.3652C5.05371 16.3652 1.82812 13.1221 1.82812 9.08789C1.82812 5.05371 5.05371 1.81934 9.0791 1.81934C13.1133 1.81934 16.3564 5.05371 16.3652 9.08789C16.374 13.1221 13.1221 16.3652 9.08789 16.3652ZM9.08789 10.6963C9.94043 10.6963 10.582 10.0283 10.582 9.12305V5.47559C10.582 4.56152 9.94043 3.90234 9.08789 3.90234C8.22656 3.90234 7.58496 4.56152 7.58496 5.47559V9.12305C7.58496 10.0283 8.22656 10.6963 9.08789 10.6963ZM6.89941 14.3174H11.2764C11.5488 14.3174 11.7949 14.0801 11.7949 13.8076C11.7949 13.5264 11.5576 13.2891 11.2764 13.2891H9.59766V12.4805C11.3379 12.2695 12.5508 10.96 12.5508 9.17578V8.08594C12.5508 7.81348 12.3135 7.58496 12.041 7.58496C11.7598 7.58496 11.5225 7.81348 11.5225 8.08594V9.16699C11.5225 10.5557 10.4941 11.5488 9.0791 11.5488C7.67285 11.5488 6.64453 10.5557 6.64453 9.16699V8.08594C6.64453 7.81348 6.40723 7.58496 6.12598 7.58496C5.85352 7.58496 5.61621 7.81348 5.61621 8.08594V9.17578C5.61621 10.96 6.83789 12.2783 8.57812 12.4805V13.2891H6.89941C6.61816 13.2891 6.37207 13.5264 6.37207 13.8076C6.37207 14.0889 6.61816 14.3174 6.89941 14.3174Z" fill="#2b80ff"/>
</svg>
