<?xml version="1.0" encoding="utf-8"?>
<!-- Generator: Adobe Illustrator 25.2.1, SVG Export Plug-In . SVG Version: 6.00 Build 0)  -->
<svg version="1.1" id="Layer_1" xmlns="http://www.w3.org/2000/svg" xmlns:xlink="http://www.w3.org/1999/xlink" x="0px" y="0px"
	 viewBox="0 0 102.8 102.8" style="enable-background:new 0 0 102.8 102.8;" xml:space="preserve">
<style type="text/css">
	.st0{fill:#FFFFFF;}
</style>
<g>
	<path class="st0" d="M53.6,95C41.3,95,1.4,94,1.4,81.6c0-11.1,24.2-29.4,50-29.5c0,0,0,0,0.1,0c15.9,0,28.7,6.6,34.8,10.5
		c7.6,4.8,15.7,12.3,15.7,18.9c0,5-5.4,8.5-16.5,10.7C77.2,94,65.9,95,53.6,95z M7.4,81.6c0.6,1.2,6.8,5,28.4,6.7
		c16.5,1.3,35,0.7,47.2-1.5c10.8-2,13.1-4.5,13.1-5.1c0-2.3-4-8.2-12.9-13.9c-5.6-3.6-17.2-9.6-31.6-9.6c0,0,0,0,0,0
		C27.5,58.2,7.5,75.1,7.4,81.6z"/>
	<path class="st0" d="M51.7,49.1c-12.4,0-22.5-10.1-22.5-22.5S39.3,4.1,51.7,4.1s22.5,10.1,22.5,22.5S64.1,49.1,51.7,49.1z
		 M51.7,10.1c-9.1,0-16.5,7.4-16.5,16.5s7.4,16.5,16.5,16.5c9.1,0,16.5-7.4,16.5-16.5S60.8,10.1,51.7,10.1z"/>
</g>
</svg>
