<svg width="26" height="26" viewBox="0 0 26 26" fill="none" xmlns="http://www.w3.org/2000/svg">
<path d="M12.9937 26C20.1189 26 26 20.1189 26 12.9937C26 5.8811 20.1063 0 12.9812 0C5.86854 0 0 5.8811 0 12.9937C0 20.1189 5.8811 26 12.9937 26ZM16.2484 12.378C14.8913 12.378 13.7603 11.159 13.7603 9.62591C13.7477 8.11793 14.8913 6.93668 16.2484 6.93668C17.5805 6.93668 18.724 8.0928 18.724 9.61334C18.724 11.159 17.593 12.378 16.2484 12.378ZM9.09811 12.5036C7.92943 12.5036 6.92412 11.448 6.92412 10.1034C6.91155 8.80909 7.92943 7.76607 9.09811 7.76607C10.2668 7.76607 11.2721 8.78395 11.2721 10.1034C11.2721 11.448 10.2668 12.5036 9.09811 12.5036ZM5.68004 18.1083C4.85065 18.1083 4.53649 17.7564 4.53649 17.1406C4.53649 15.4819 6.33349 13.4461 9.09811 13.4461C10.204 13.4461 11.0836 13.7728 11.7748 14.2127C10.3925 15.2934 9.67617 17.1658 10.3171 18.1083H5.68004ZM12.3905 18.1083C11.3726 18.1083 11.0082 17.7941 11.0082 17.2286C11.0082 15.6452 13.0314 13.4587 16.2484 13.4587C19.4403 13.4587 21.4635 15.6452 21.4635 17.2286C21.4635 17.7941 21.1116 18.1083 20.0812 18.1083H12.3905Z" fill="white"/>
</svg>
