<svg width="26" height="26" viewBox="0 0 26 26" fill="none" xmlns="http://www.w3.org/2000/svg">
<path d="M12.9937 26C20.1189 26 26 20.1161 26 13C26 5.88395 20.1063 0 12.9812 0C5.86854 0 0 5.88395 0 13C0 20.1161 5.8811 26 12.9937 26ZM12.9812 15.0493C10.5181 15.0368 8.60802 12.9749 8.60802 10.2466C8.58289 7.68182 10.5307 5.54449 12.9812 5.54449C15.4316 5.54449 17.3543 7.68182 17.3543 10.2466C17.3543 12.9749 15.4442 15.0745 12.9812 15.0493ZM12.9812 23.8501C10.1663 23.8501 7.17545 22.6809 5.27791 20.6441C6.72305 18.4816 9.58821 17.2244 12.9812 17.2244C16.3364 17.2244 19.2267 18.4565 20.6844 20.6441C18.7869 22.6809 15.796 23.8501 12.9812 23.8501Z" fill="white"/>
</svg>
