<svg width="19" height="19" viewBox="0 0 19 19" fill="none" xmlns="http://www.w3.org/2000/svg">
<path d="M9.08789 18.1758C14.0713 18.1758 18.1846 14.0625 18.1846 9.08789C18.1846 4.11328 14.0625 0 9.0791 0C4.10449 0 0 4.11328 0 9.08789C0 14.0625 4.11328 18.1758 9.08789 18.1758ZM9.08789 16.3652C5.05371 16.3652 1.82812 13.1221 1.82812 9.08789C1.82812 5.05371 5.05371 1.81934 9.0791 1.81934C13.1133 1.81934 16.3564 5.05371 16.3652 9.08789C16.374 13.1221 13.1221 16.3652 9.08789 16.3652ZM5.5459 12.5596H9.98438C10.8809 12.5596 11.3994 12.0498 11.3994 11.1709V7.04004C11.3994 6.15234 10.916 5.65137 10.0195 5.65137H5.5459C4.68457 5.65137 4.13086 6.15234 4.13086 7.04004V11.1973C4.13086 12.0762 4.6582 12.5596 5.5459 12.5596ZM11.8916 10.3623L13.4561 11.6895C13.6318 11.8301 13.8076 11.9355 13.9834 11.9355C14.3262 11.9355 14.5547 11.6895 14.5547 11.3203V6.89941C14.5547 6.53906 14.3262 6.29297 13.9834 6.29297C13.8076 6.29297 13.623 6.38965 13.4561 6.53027L11.8916 7.86621V10.3623Z" fill="#f09a38"/>
</svg>
